<svg width="203" height="28" viewBox="0 0 203 28" fill="none" xmlns="http://www.w3.org/2000/svg">
<path d="M23.1446 8.5306C23.1446 8.75885 23.0875 8.97569 22.9734 9.18112C22.8593 9.36372 22.6767 9.45502 22.4256 9.45502C22.0604 9.45502 21.8093 9.37513 21.6724 9.21535C21.5583 9.05558 21.4556 8.82733 21.3643 8.5306C21.2958 8.21105 21.1816 7.82303 21.0219 7.36653C20.8849 6.8872 20.7251 6.41929 20.5425 5.96278C20.3828 5.48346 20.2116 5.11826 20.029 4.86718C19.9377 4.73023 19.835 4.60469 19.7208 4.49057C19.6067 4.35362 19.4926 4.22808 19.3785 4.11396C19.2187 3.90853 18.9334 3.77158 18.5225 3.7031C18.1117 3.6118 17.6894 3.56615 17.2557 3.56615C16.8221 3.54333 16.4797 3.53192 16.2286 3.53192C15.9319 3.53192 15.6123 3.53192 15.27 3.53192C14.9276 3.53192 14.6309 3.6118 14.3798 3.77158C14.1287 3.90853 13.9918 4.18243 13.9689 4.59328C13.9461 5.36933 13.9347 6.16821 13.9347 6.98991C13.9347 7.78879 13.9347 8.58767 13.9347 9.38654C13.9347 11.9886 13.9347 14.5907 13.9347 17.1927C13.9575 19.7948 13.9689 22.3968 13.9689 24.9989C13.9689 25.2728 14.0032 25.5923 14.0716 25.9575C14.1629 26.3227 14.3912 26.5053 14.7564 26.5053C15.0988 26.5053 15.4297 26.4939 15.7493 26.4711C16.0917 26.4483 16.434 26.4369 16.7764 26.4369C16.959 26.4369 17.096 26.5167 17.1873 26.6765C17.2786 26.8135 17.3242 26.9504 17.3242 27.0874C17.3242 27.4982 17.1302 27.7036 16.7422 27.7036C16.4911 27.7036 16.2286 27.6922 15.9547 27.6694C15.7036 27.6466 15.4526 27.6238 15.2015 27.6009C14.7678 27.5553 14.3341 27.5325 13.9005 27.5325C13.4668 27.5325 13.0217 27.5325 12.5652 27.5325C11.812 27.5325 11.0587 27.5325 10.3055 27.5325C9.55229 27.5325 8.79906 27.5553 8.04583 27.6009C7.77193 27.6238 7.48662 27.6466 7.18989 27.6694C6.91599 27.6922 6.64209 27.7036 6.36819 27.7036C6.16276 27.7036 6.00299 27.6352 5.88886 27.4982C5.77474 27.3613 5.71768 27.2015 5.71768 27.0189C5.71768 26.7678 5.82039 26.6195 6.02581 26.5738C6.23124 26.5053 6.42525 26.4711 6.60785 26.4711C6.85893 26.4711 7.08718 26.4825 7.2926 26.5053C7.52085 26.5053 7.74911 26.5053 7.97736 26.5053C8.57081 26.5053 8.90177 26.3684 8.97025 26.0945C9.06155 25.8206 9.1072 25.4326 9.1072 24.9304V5.82583C9.1072 4.93566 9.06155 4.34221 8.97025 4.04548C8.87895 3.72593 8.63928 3.56615 8.25126 3.56615C7.86323 3.54333 7.22413 3.53192 6.33395 3.53192C6.03723 3.53192 5.62638 3.54333 5.1014 3.56615C4.59925 3.58898 4.22263 3.66887 3.97156 3.80582C3.67483 3.96559 3.43517 4.18243 3.25257 4.45633C3.06997 4.70741 2.92161 4.99272 2.80748 5.31227C2.62488 5.83725 2.44228 6.37364 2.25968 6.92144C2.09991 7.46924 1.92872 8.00563 1.74612 8.5306C1.65482 8.85015 1.54069 9.08982 1.40374 9.24959C1.26679 9.38654 1.01571 9.45502 0.650514 9.45502C0.216838 9.45502 0 9.22677 0 8.77027C0 8.17681 0.0570626 7.50348 0.171188 6.75025C0.308138 5.9742 0.388026 5.25521 0.410851 4.59328C0.433676 4.22808 0.433676 3.86288 0.410851 3.49768C0.410851 3.10965 0.445089 2.74445 0.513564 2.40208C0.536389 2.2423 0.616276 2.16241 0.753227 2.16241C1.0043 2.16241 1.25538 2.19665 1.50645 2.26513C1.78035 2.3336 2.04284 2.39066 2.29392 2.43631C2.56782 2.45914 2.84172 2.48196 3.11562 2.50479C3.41235 2.50479 3.70907 2.5162 4.0058 2.53903C5.21552 2.56185 6.4709 2.58468 7.77193 2.6075C9.09578 2.6075 10.3512 2.6075 11.5381 2.6075C12.8847 2.6075 14.2999 2.59609 15.7835 2.57326C17.2672 2.55044 18.6823 2.53903 20.029 2.53903C20.1659 2.53903 20.3029 2.53903 20.4398 2.53903C20.5996 2.53903 20.748 2.52761 20.8849 2.50479C21.136 2.45914 21.3757 2.39066 21.6039 2.29936C21.855 2.20806 22.1061 2.16241 22.3571 2.16241C22.4713 2.16241 22.5512 2.21948 22.5968 2.3336C22.6653 2.65315 22.7109 3.02976 22.7338 3.46344C22.7566 3.87429 22.7794 4.23949 22.8022 4.55904C22.8707 5.19814 22.9392 5.86007 23.0077 6.54482C23.099 7.20675 23.1446 7.86868 23.1446 8.5306Z" fill="black"/>
<path d="M38.0527 18.391C38.0527 17.6378 37.9956 16.7819 37.8815 15.8232C37.7902 14.8417 37.5847 13.8945 37.2652 12.9815C36.9456 12.0685 36.4777 11.3153 35.8615 10.7218C35.268 10.1055 34.4577 9.79739 33.4306 9.79739C32.4948 9.79739 31.7415 10.0941 31.1709 10.6876C30.6003 11.281 30.1552 12.0228 29.8356 12.913C29.5389 13.8032 29.3335 14.7276 29.2194 15.6863C29.1052 16.6221 29.0482 17.4324 29.0482 18.1171C29.0482 18.8704 29.0938 19.7377 29.1851 20.7192C29.2993 21.6778 29.5161 22.6137 29.8356 23.5267C30.1552 24.4397 30.6231 25.1929 31.2394 25.7863C31.8557 26.3798 32.6774 26.6765 33.7045 26.6765C34.6631 26.6765 35.4278 26.3912 35.9984 25.8206C36.5919 25.2271 37.0369 24.4967 37.3337 23.6294C37.6304 22.7392 37.8244 21.8262 37.9157 20.8904C38.007 19.9317 38.0527 19.0986 38.0527 18.391ZM42.709 18.5622C42.709 20.3197 42.3095 21.8833 41.5107 23.2528C40.7118 24.5994 39.6162 25.6608 38.2239 26.4369C36.8543 27.2129 35.2908 27.6009 33.5333 27.6009C31.7758 27.6009 30.2237 27.1901 28.877 26.3684C27.5303 25.5467 26.4689 24.4397 25.6929 23.0473C24.9397 21.655 24.5631 20.0915 24.5631 18.3568C24.5631 16.5536 24.9397 14.9444 25.6929 13.5293C26.4461 12.0913 27.5075 10.9615 28.877 10.1398C30.2465 9.29524 31.8442 8.87298 33.6702 8.87298C35.6789 8.87298 37.3451 9.28383 38.6689 10.1055C40.0156 10.9044 41.0199 12.0342 41.6818 13.4951C42.3666 14.933 42.709 16.6221 42.709 18.5622Z" fill="black"/>
<path d="M64.2827 26.8819C64.2827 27.0645 64.2142 27.1901 64.0772 27.2586C63.9631 27.3042 63.8376 27.3384 63.7006 27.3613C63.1528 27.4069 62.605 27.4297 62.0572 27.4297C61.5094 27.4526 60.973 27.464 60.448 27.464C60.1513 27.464 59.8318 27.4526 59.4894 27.4297C59.1698 27.4069 58.8731 27.3499 58.5992 27.2586C58.3025 27.1673 58.0514 26.9961 57.846 26.745C57.6406 26.4939 57.458 26.2314 57.2982 25.9575C56.4537 24.4739 55.5977 23.0017 54.7304 21.5409C53.863 20.0801 53.0299 18.5965 52.231 17.09L51.3751 17.672V25.5467C51.3751 25.9575 51.455 26.22 51.6148 26.3341C51.7974 26.4483 52.0256 26.4939 52.2995 26.4711C52.5962 26.4254 52.9158 26.4026 53.2582 26.4026C53.5777 26.4026 53.7375 26.5852 53.7375 26.9504C53.7375 27.3156 53.5549 27.4982 53.1897 27.4982C52.5278 27.4982 51.8658 27.4754 51.2039 27.4297C50.5648 27.3841 49.9143 27.3613 49.2524 27.3613C48.5904 27.3613 47.9285 27.3841 47.2666 27.4297C46.6047 27.4982 45.9427 27.5325 45.2808 27.5325C45.1438 27.5325 45.0297 27.4754 44.9384 27.3613C44.87 27.2243 44.8357 27.0874 44.8357 26.9504C44.8357 26.608 45.0183 26.4369 45.3835 26.4369C45.6118 26.4369 45.8286 26.4483 46.034 26.4711C46.2395 26.4711 46.4563 26.4711 46.6845 26.4711C46.9584 26.4711 47.1182 26.3798 47.1639 26.1972C47.2095 26.0146 47.2323 25.8092 47.2323 25.5809C47.2552 25.2614 47.2666 24.9418 47.2666 24.6223C47.2894 24.3027 47.3008 23.9946 47.3008 23.6979V7.09262C47.3008 6.59047 47.2894 6.09974 47.2666 5.62041C47.2666 5.14108 47.2552 4.65034 47.2323 4.14819C47.2095 3.89712 47.1639 3.62322 47.0954 3.32649C47.0497 3.02977 46.8557 2.8814 46.5134 2.8814C46.2851 2.8814 46.0569 2.89282 45.8286 2.91564C45.6232 2.93847 45.4063 2.94988 45.1781 2.94988C44.8129 2.94988 44.6303 2.7901 44.6303 2.47055C44.6303 2.2423 44.7558 2.09394 45.0069 2.02546C45.2808 1.95699 45.5661 1.91134 45.8628 1.88851C46.1596 1.86569 46.4449 1.83145 46.7188 1.7858C47.3579 1.67168 47.9856 1.53472 48.6018 1.37495C49.241 1.21517 49.88 1.0554 50.5191 0.895623C50.5876 0.872798 50.6447 0.861386 50.6903 0.861386C50.7588 0.838561 50.8273 0.827148 50.8958 0.827148C51.2381 0.827148 51.4093 0.975511 51.4093 1.27224C51.4093 3.82864 51.3979 6.38505 51.3751 8.94145C51.3523 11.475 51.3409 14.0086 51.3409 16.5422C52.1397 15.9259 52.95 15.3096 53.7717 14.6934C54.5934 14.0543 55.3695 13.3809 56.0999 12.6734C56.4422 12.331 56.796 11.9886 57.1612 11.6462C57.5264 11.281 57.846 10.9044 58.1199 10.5164C58.3025 10.2653 58.4052 10.0256 58.428 9.79739C58.4737 9.54632 58.5307 9.34089 58.5992 9.18112C58.6905 9.02134 58.8845 8.94145 59.1813 8.94145C59.7747 8.94145 60.3682 8.95287 60.9616 8.97569C61.5551 8.97569 62.1371 8.97569 62.7077 8.97569C63.0501 8.97569 63.2213 9.12405 63.2213 9.42078C63.2213 9.67186 63.1414 9.82022 62.9816 9.86587C62.8219 9.91152 62.6507 9.93434 62.4681 9.93434C62.1257 9.93434 61.7605 10.0028 61.3725 10.1398C61.0073 10.2767 60.6991 10.4365 60.448 10.6191C59.5807 11.281 58.7248 11.9772 57.8802 12.7076C57.0585 13.4152 56.2254 14.1342 55.3809 14.8646C55.6091 15.2526 55.9515 15.846 56.408 16.6449C56.8873 17.4438 57.4237 18.334 58.0172 19.3154C58.6106 20.2969 59.2155 21.2556 59.8318 22.1914C60.448 23.1272 61.0073 23.9489 61.5094 24.6565C62.0344 25.3413 62.4452 25.7978 62.742 26.026C62.9474 26.1858 63.1414 26.2885 63.324 26.3341C63.5066 26.3798 63.712 26.4369 63.9403 26.5053C64.1685 26.5738 64.2827 26.6993 64.2827 26.8819Z" fill="black"/>
<path d="M76.7724 15.3781C76.7724 14.9216 76.7496 14.3738 76.7039 13.7347C76.6583 13.0956 76.5442 12.4793 76.3616 11.8859C76.2018 11.2696 75.9393 10.756 75.5741 10.3452C75.2089 9.93434 74.7067 9.72892 74.0676 9.72892C73.4514 9.72892 72.9036 9.93434 72.4242 10.3452C71.9677 10.7332 71.5797 11.2354 71.2602 11.8516C70.9406 12.4451 70.6895 13.0728 70.5069 13.7347C70.3243 14.3738 70.1874 14.9444 70.0961 15.4466C70.4841 15.4466 70.8607 15.458 71.2259 15.4808C71.614 15.4808 71.9906 15.4808 72.3558 15.4808C73.8394 15.4808 75.3116 15.4466 76.7724 15.3781ZM81.7026 22.9446C81.7026 23.0131 81.6798 23.1158 81.6342 23.2528C81.6113 23.3669 81.5771 23.4582 81.5314 23.5267C81.3717 23.8919 81.0749 24.3141 80.6413 24.7935C80.2076 25.25 79.8196 25.6037 79.4772 25.8548C77.9479 27.0189 76.179 27.6009 74.1704 27.6009C72.3672 27.6009 70.8037 27.2243 69.4798 26.4711C68.156 25.695 67.1402 24.6223 66.4327 23.2528C65.7251 21.8833 65.3713 20.3083 65.3713 18.528C65.3713 16.7476 65.7137 15.1385 66.3984 13.7005C67.106 12.2397 68.1103 11.087 69.4113 10.2425C70.7352 9.37513 72.3215 8.94145 74.1704 8.94145C76.2931 8.94145 77.9936 9.52349 79.2718 10.6876C80.55 11.8516 81.1891 13.5179 81.1891 15.6863C81.1891 16.2797 80.9152 16.5764 80.3674 16.5764C79.3631 16.5764 78.3588 16.565 77.3545 16.5422C76.3502 16.5194 75.3459 16.508 74.3416 16.508C73.6112 16.508 72.8807 16.508 72.1503 16.508C71.4199 16.508 70.6895 16.5194 69.9591 16.5422C69.8907 17.2269 69.8564 17.9231 69.8564 18.6307C69.8564 19.2698 69.9363 20.023 70.0961 20.8904C70.2787 21.7577 70.5412 22.6022 70.8836 23.4239C71.2488 24.2456 71.7167 24.9304 72.2873 25.4782C72.8579 26.0032 73.5541 26.2657 74.3758 26.2657C75.4029 26.2657 76.2589 26.1173 76.9436 25.8206C77.6512 25.5239 78.2789 25.1016 78.8267 24.5538C79.3745 24.006 79.9337 23.3555 80.5043 22.6022C80.5728 22.5109 80.6413 22.4425 80.7097 22.3968C80.801 22.3283 80.9037 22.2941 81.0179 22.2941C81.1777 22.2941 81.326 22.3626 81.463 22.4995C81.6227 22.6137 81.7026 22.762 81.7026 22.9446Z" fill="black"/>
<path d="M102.996 26.9162C102.996 27.2814 102.813 27.464 102.448 27.464C101.786 27.464 101.113 27.4412 100.428 27.3955C99.766 27.3727 99.1041 27.3613 98.4421 27.3613C97.803 27.3613 97.1525 27.3727 96.4906 27.3955C95.8287 27.4412 95.1667 27.464 94.5048 27.464C94.345 27.464 94.2309 27.4069 94.1624 27.2928C94.094 27.1558 94.0597 27.0189 94.0597 26.8819C94.0597 26.5396 94.2423 26.3684 94.6075 26.3684C94.813 26.3684 95.0184 26.3798 95.2238 26.4026C95.4292 26.4026 95.6347 26.4026 95.8401 26.4026C96.1824 26.4026 96.3536 26.2543 96.3536 25.9575C96.3536 24.0402 96.3536 22.1229 96.3536 20.2056C96.3765 18.2883 96.3879 16.371 96.3879 14.4537C96.3879 13.8374 96.3308 13.1983 96.2167 12.5364C96.1254 11.8745 95.8971 11.3153 95.5319 10.8588C95.1896 10.4023 94.6189 10.174 93.8201 10.174C93.3179 10.174 92.7929 10.3566 92.2451 10.7218C91.7201 11.087 91.2408 11.5207 90.8071 12.0228C90.3963 12.525 90.0996 12.9929 89.917 13.4266V25.5467C89.917 25.7521 89.9398 25.9461 89.9855 26.1287C90.0539 26.3113 90.2137 26.4026 90.4648 26.4026C90.6474 26.4026 90.83 26.4026 91.0126 26.4026C91.218 26.3798 91.412 26.3684 91.5946 26.3684C91.7087 26.3684 91.8229 26.414 91.937 26.5053C92.0511 26.5966 92.1082 26.6993 92.1082 26.8135C92.1082 27.2471 91.9256 27.464 91.5604 27.464C90.9213 27.464 90.2822 27.4412 89.6431 27.3955C89.0268 27.327 88.3877 27.2928 87.7258 27.2928C87.041 27.2928 86.3448 27.327 85.6373 27.3955C84.9525 27.4412 84.2564 27.464 83.5488 27.464C83.389 27.464 83.2749 27.4069 83.2064 27.2928C83.1379 27.1558 83.1037 27.0189 83.1037 26.8819C83.1037 26.5396 83.2863 26.3684 83.6515 26.3684C83.8569 26.3684 84.0623 26.3798 84.2678 26.4026C84.4732 26.4026 84.69 26.4026 84.9183 26.4026C85.2378 26.4026 85.4204 26.3341 85.4661 26.1972C85.5117 26.0602 85.5346 25.8434 85.5346 25.5467V20.5822C85.5346 19.1899 85.5346 17.7976 85.5346 16.4052C85.5346 15.0129 85.5346 13.6206 85.5346 12.2283C85.5346 11.9772 85.5003 11.7033 85.4318 11.4066C85.3634 11.087 85.1579 10.9272 84.8156 10.9272C84.5873 10.9272 84.3591 10.9386 84.1308 10.9615C83.9254 10.9843 83.7085 10.9957 83.4803 10.9957C83.3434 10.9957 83.1836 10.9729 83.001 10.9272C82.8412 10.8588 82.7613 10.7332 82.7613 10.5506C82.7613 10.4137 82.807 10.311 82.8983 10.2425C82.9896 10.174 83.0923 10.1284 83.2064 10.1055C83.4347 10.0371 83.6743 9.99141 83.9254 9.96858C84.1765 9.94576 84.4161 9.91152 84.6444 9.86587C85.2378 9.75174 85.8199 9.62621 86.3905 9.48926C86.984 9.32948 87.566 9.1697 88.1366 9.00993C88.2279 8.96428 88.3192 8.93004 88.4105 8.90722C88.5018 8.86157 88.5931 8.83874 88.6844 8.83874C88.867 8.83874 89.0268 9.00993 89.1637 9.35231C89.3235 9.69468 89.4491 10.0599 89.5404 10.4479C89.6545 10.8359 89.723 11.1098 89.7458 11.2696C90.4077 10.6762 91.2066 10.1512 92.1424 9.69468C93.0782 9.21535 94.0027 8.97569 94.9157 8.97569C96.4449 8.97569 97.6318 9.1697 98.4764 9.55773C99.3437 9.94576 99.96 10.5963 100.325 11.5093C100.69 12.3994 100.873 13.5978 100.873 15.1042C100.873 16.8846 100.862 18.6649 100.839 20.4453C100.816 22.2256 100.805 24.006 100.805 25.7863C100.805 26.0146 100.873 26.1858 101.01 26.2999C101.17 26.3912 101.364 26.4369 101.592 26.4369C101.752 26.4369 101.9 26.4254 102.037 26.4026C102.197 26.3798 102.357 26.3684 102.516 26.3684C102.836 26.3684 102.996 26.551 102.996 26.9162Z" fill="black"/>
<path d="M125.621 21.5066C125.621 21.8718 125.576 22.2485 125.484 22.6365C125.416 23.0017 125.359 23.3783 125.313 23.7663C125.267 24.2 125.21 24.6451 125.142 25.1016C125.096 25.5581 125.051 26.0146 125.005 26.4711C124.936 26.8363 124.834 27.0874 124.697 27.2243C124.56 27.3384 124.297 27.3955 123.909 27.3955C121.581 27.3955 119.253 27.3841 116.925 27.3613C114.597 27.3156 112.268 27.2928 109.94 27.2928C109.141 27.2928 108.343 27.327 107.544 27.3955C106.745 27.4868 105.946 27.5325 105.147 27.5325C104.759 27.5325 104.565 27.3384 104.565 26.9504C104.565 26.5624 104.736 26.3684 105.079 26.3684C105.421 26.3456 105.786 26.3113 106.174 26.2657C106.631 26.22 106.996 26.0488 107.27 25.7521C107.567 25.4326 107.715 24.7935 107.715 23.8348V5.38075C107.715 5.01555 107.646 4.66176 107.509 4.31938C107.395 3.97701 107.11 3.80582 106.654 3.80582C106.38 3.80582 106.106 3.81723 105.832 3.84006C105.558 3.84006 105.284 3.84006 105.01 3.84006C104.44 3.84006 104.154 3.56615 104.154 3.01835C104.154 2.74445 104.245 2.57326 104.428 2.50479C104.611 2.41349 104.816 2.36784 105.044 2.36784C105.706 2.36784 106.357 2.39066 106.996 2.43631C107.635 2.45914 108.274 2.47055 108.913 2.47055C111.059 2.47055 113.204 2.45914 115.35 2.43631C117.495 2.39066 119.641 2.36784 121.787 2.36784C122.197 2.36784 122.608 2.35643 123.019 2.3336C123.43 2.28795 123.841 2.2423 124.252 2.19665C124.297 2.56185 124.343 2.92705 124.389 3.29225C124.457 3.65745 124.514 4.02266 124.56 4.38786C124.628 4.82153 124.72 5.27803 124.834 5.75736C124.971 6.23669 125.039 6.7046 125.039 7.1611C125.039 7.435 124.925 7.66325 124.697 7.84585C124.468 8.00563 124.229 8.08552 123.978 8.08552C123.43 8.08552 123.065 7.84585 122.882 7.36653C122.54 6.29375 122.026 5.40357 121.341 4.69599C120.68 3.96559 119.744 3.60039 118.534 3.60039H112.371V13.6662C113.239 13.6662 114.083 13.6548 114.905 13.632C115.749 13.6092 116.594 13.5635 117.438 13.4951C118.283 13.4266 119.093 13.2896 119.869 13.0842C120.189 13.0157 120.52 12.9244 120.862 12.8103C121.227 12.6962 121.57 12.6391 121.889 12.6391C122.163 12.6391 122.3 12.7647 122.3 13.0157C122.3 13.1755 122.254 13.4152 122.163 13.7347C122.095 14.0543 122.038 14.2939 121.992 14.4537C121.878 14.7504 121.764 14.933 121.65 15.0015C121.535 15.0472 121.33 15.07 121.033 15.07C120.486 15.07 119.949 15.0357 119.424 14.9673C118.557 14.876 117.678 14.8189 116.788 14.7961C115.898 14.7504 115.007 14.7276 114.117 14.7276C113.615 14.7276 113.193 14.8646 112.851 15.1385C112.531 15.3895 112.371 15.789 112.371 16.3368V24.7592C112.371 25.307 112.44 25.695 112.577 25.9233C112.736 26.1515 113.102 26.2657 113.672 26.2657C114.289 26.2657 114.973 26.2657 115.726 26.2657C116.48 26.2657 117.244 26.2314 118.02 26.163C118.819 26.0945 119.561 25.9461 120.246 25.7179C120.931 25.4896 121.501 25.1472 121.958 24.6907C122.346 24.3027 122.722 23.7892 123.088 23.15C123.453 22.5109 123.749 21.9403 123.978 21.4382C124.092 21.1643 124.206 20.9817 124.32 20.8904C124.434 20.7762 124.64 20.7192 124.936 20.7192C125.21 20.7192 125.393 20.7877 125.484 20.9246C125.576 21.0616 125.621 21.2556 125.621 21.5066Z" fill="#5B40FF"/>
<path d="M140.611 22.3626C140.611 23.4354 140.383 24.3141 139.927 24.9989C139.47 25.6608 138.865 26.1744 138.112 26.5396C137.359 26.9048 136.537 27.1558 135.647 27.2928C134.78 27.4297 133.912 27.4982 133.045 27.4982C132.474 27.4982 131.915 27.4412 131.367 27.327C130.819 27.2129 130.272 27.0874 129.724 26.9504C129.496 26.9048 129.256 26.8591 129.005 26.8135C128.754 26.745 128.503 26.7108 128.252 26.7108C128.16 26.3912 128.023 25.9233 127.841 25.307C127.681 24.6679 127.521 24.0516 127.361 23.4582C127.224 22.8419 127.156 22.4082 127.156 22.1572C127.156 21.9061 127.236 21.7463 127.396 21.6778C127.555 21.6094 127.727 21.5751 127.909 21.5751C128.183 21.5751 128.389 21.6778 128.525 21.8833C128.868 22.3626 129.142 22.8647 129.347 23.3897C129.553 23.9147 129.872 24.4054 130.306 24.8619C130.625 25.2043 131.082 25.5581 131.675 25.9233C132.292 26.2657 132.839 26.4369 133.319 26.4369C134.346 26.4369 135.11 26.1972 135.613 25.7179C136.138 25.2385 136.4 24.4739 136.4 23.4239C136.4 22.7164 136.183 22.1229 135.75 21.6436C135.316 21.1643 134.757 20.7306 134.072 20.3426C133.41 19.9545 132.702 19.5779 131.949 19.2127C131.196 18.8247 130.477 18.4024 129.792 17.9459C129.13 17.4894 128.583 16.9416 128.149 16.3025C127.715 15.6406 127.498 14.8417 127.498 13.9059C127.498 12.7418 127.818 11.7946 128.457 11.0642C129.096 10.3338 129.906 9.79739 130.888 9.45502C131.892 9.11264 132.896 8.94145 133.901 8.94145C134.357 8.94145 134.802 8.97569 135.236 9.04417C135.67 9.11264 136.103 9.23818 136.537 9.42078C136.742 9.48925 137.016 9.58056 137.359 9.69468C137.724 9.78598 138.009 9.83163 138.215 9.83163C138.511 9.83163 138.797 9.79739 139.071 9.72892C139.116 10.368 139.185 11.0071 139.276 11.6462C139.39 12.2853 139.459 12.9244 139.481 13.5635V13.6662C139.504 13.8945 139.436 14.0885 139.276 14.2483C139.139 14.3852 138.968 14.4537 138.762 14.4537C138.534 14.4537 138.363 14.4081 138.249 14.3168C138.158 14.2255 138.066 14.0885 137.975 13.9059C137.678 13.244 137.382 12.6163 137.085 12.0228C136.811 11.4066 136.434 10.9044 135.955 10.5164C135.499 10.1284 134.837 9.93434 133.969 9.93434C133.056 9.93434 132.383 10.2881 131.949 10.9957C131.516 11.7033 131.299 12.4565 131.299 13.2554C131.299 13.8945 131.538 14.4423 132.018 14.8988C132.497 15.3553 132.988 15.7205 133.49 15.9944C134.106 16.3139 134.814 16.6677 135.613 17.0558C136.434 17.4438 137.222 17.8889 137.975 18.391C138.728 18.8932 139.356 19.4752 139.858 20.1371C140.36 20.7762 140.611 21.5181 140.611 22.3626Z" fill="#5B40FF"/>
<path d="M153.803 25.7521C153.803 26.0717 153.632 26.357 153.289 26.608C152.97 26.8363 152.559 27.0303 152.057 27.1901C151.577 27.327 151.087 27.4297 150.584 27.4982C150.082 27.5667 149.66 27.6009 149.318 27.6009C147.606 27.6009 146.419 27.2586 145.757 26.5738C145.095 25.8662 144.764 24.7022 144.764 23.0816C144.764 21.1186 144.775 19.1557 144.798 17.1927C144.821 15.2298 144.832 13.2668 144.832 11.3038H143.258C143.029 11.3038 142.835 11.3837 142.675 11.5435C142.516 11.6805 142.367 11.7489 142.23 11.7489C142.002 11.7489 141.888 11.6348 141.888 11.4066C141.888 11.3153 141.934 11.1441 142.025 10.893C142.116 10.6419 142.185 10.4821 142.23 10.4137C142.299 10.2767 142.367 10.1968 142.436 10.174C142.504 10.1512 142.607 10.1398 142.744 10.1398H144.867V6.47635C145.437 6.1568 146.065 5.68889 146.75 5.07261C147.434 4.45633 147.959 3.88571 148.325 3.36073C148.393 3.2466 148.484 3.13248 148.599 3.01835C148.713 2.8814 148.85 2.81293 149.009 2.81293C149.375 2.81293 149.546 2.9727 149.523 3.29225L149.42 10.1398H152.947C153.129 10.1398 153.289 10.1854 153.426 10.2767C153.586 10.3452 153.666 10.4821 153.666 10.6876C153.666 11.1212 153.426 11.3381 152.947 11.3381H149.42L149.352 24.5538C149.352 24.919 149.42 25.2728 149.557 25.6152C149.717 25.9347 150.014 26.0945 150.447 26.0945C150.835 26.0945 151.223 26.0602 151.611 25.9918C152.022 25.9233 152.399 25.8092 152.741 25.6494C152.855 25.6037 152.958 25.5581 153.049 25.5124C153.164 25.444 153.278 25.4097 153.392 25.4097C153.666 25.4097 153.803 25.5239 153.803 25.7521Z" fill="#5B40FF"/>
<path d="M164.932 23.7663C164.864 22.6935 164.818 21.6208 164.795 20.548C164.773 19.4524 164.773 18.3568 164.795 17.2612C163.86 17.421 162.947 17.7177 162.056 18.1514C161.189 18.5622 160.47 19.1214 159.899 19.829C159.329 20.5366 159.043 21.4382 159.043 22.5338C159.043 22.9903 159.101 23.481 159.215 24.006C159.352 24.531 159.58 24.9761 159.899 25.3413C160.242 25.6836 160.698 25.8548 161.269 25.8548C161.68 25.8548 162.113 25.7407 162.57 25.5124C163.026 25.2614 163.46 24.9761 163.871 24.6565C164.305 24.337 164.658 24.0402 164.932 23.7663ZM171.985 25.7863C171.985 25.8776 171.94 25.9804 171.848 26.0945C171.78 26.2086 171.711 26.2999 171.643 26.3684C170.935 27.1901 170.022 27.6009 168.904 27.6009C167.922 27.6009 167.135 27.3841 166.541 26.9504C165.948 26.5167 165.492 25.8434 165.172 24.9304C164.442 25.7065 163.654 26.3227 162.81 26.7792C161.988 27.2357 161.018 27.464 159.899 27.464C159.101 27.464 158.29 27.2928 157.469 26.9504C156.67 26.5852 155.996 26.0717 155.448 25.4097C154.924 24.7478 154.661 23.9832 154.661 23.1158C154.661 22.2485 154.878 21.4838 155.312 20.8219C155.768 20.1371 156.339 19.5551 157.023 19.0758C157.708 18.5736 158.404 18.1628 159.112 17.8432C160.025 17.4552 160.961 17.1585 161.919 16.953C162.878 16.7248 163.837 16.4965 164.795 16.2683V16.1313C164.795 15.7205 164.784 15.1727 164.761 14.4879C164.761 13.7804 164.693 13.0842 164.556 12.3995C164.419 11.6919 164.19 11.0984 163.871 10.6191C163.551 10.1169 163.083 9.86587 162.467 9.86587C161.76 9.86587 161.121 10.0713 160.55 10.4821C160.002 10.893 159.614 11.4408 159.386 12.1256C159.34 12.331 159.306 12.5364 159.283 12.7418C159.26 12.9244 159.226 13.1184 159.18 13.3239C159.135 13.6891 158.918 13.9401 158.53 14.0771C158.165 14.1912 157.822 14.2483 157.503 14.2483C157.115 14.2483 156.738 14.1684 156.373 14.0086C156.008 13.826 155.825 13.4951 155.825 13.0157C155.825 12.8331 155.848 12.6733 155.894 12.5364C155.962 12.3766 156.031 12.2168 156.099 12.0571C156.464 11.1897 157.012 10.5506 157.742 10.1398C158.473 9.72892 159.272 9.45502 160.139 9.31807C161.029 9.18112 161.874 9.11264 162.673 9.11264C164.544 9.11264 166.085 9.61479 167.295 10.6191C168.504 11.6234 169.109 13.107 169.109 15.07V20.2399C169.086 20.879 169.075 21.5409 169.075 22.2256C169.098 22.8876 169.132 23.5495 169.178 24.2114C169.223 24.5994 169.315 24.9761 169.452 25.3413C169.589 25.6836 169.897 25.8548 170.376 25.8548C170.696 25.8548 170.958 25.7863 171.164 25.6494C171.392 25.5124 171.597 25.444 171.78 25.444C171.871 25.444 171.928 25.4896 171.951 25.5809C171.974 25.6722 171.985 25.7407 171.985 25.7863Z" fill="#5B40FF"/>
<path d="M184.48 25.7521C184.48 26.0717 184.309 26.357 183.967 26.608C183.647 26.8363 183.236 27.0303 182.734 27.1901C182.255 27.327 181.764 27.4297 181.262 27.4982C180.76 27.5667 180.337 27.6009 179.995 27.6009C178.283 27.6009 177.096 27.2586 176.434 26.5738C175.772 25.8662 175.441 24.7022 175.441 23.0816C175.441 21.1186 175.453 19.1557 175.476 17.1927C175.498 15.2298 175.51 13.2668 175.51 11.3038H173.935C173.707 11.3038 173.513 11.3837 173.353 11.5435C173.193 11.6805 173.045 11.7489 172.908 11.7489C172.68 11.7489 172.565 11.6348 172.565 11.4066C172.565 11.3153 172.611 11.1441 172.702 10.893C172.794 10.6419 172.862 10.4821 172.908 10.4137C172.976 10.2767 173.045 10.1968 173.113 10.174C173.182 10.1512 173.284 10.1398 173.421 10.1398H175.544V6.47635C176.115 6.1568 176.742 5.68889 177.427 5.07261C178.112 4.45633 178.637 3.88571 179.002 3.36073C179.071 3.2466 179.162 3.13248 179.276 3.01835C179.39 2.8814 179.527 2.81293 179.687 2.81293C180.052 2.81293 180.223 2.9727 180.2 3.29225L180.098 10.1398H183.624C183.807 10.1398 183.967 10.1854 184.103 10.2767C184.263 10.3452 184.343 10.4821 184.343 10.6876C184.343 11.1212 184.104 11.3381 183.624 11.3381H180.098L180.029 24.5538C180.029 24.919 180.098 25.2728 180.235 25.6152C180.394 25.9347 180.691 26.0945 181.125 26.0945C181.513 26.0945 181.901 26.0602 182.289 25.9918C182.7 25.9233 183.076 25.8092 183.419 25.6494C183.533 25.6037 183.636 25.5581 183.727 25.5124C183.841 25.444 183.955 25.4097 184.069 25.4097C184.343 25.4097 184.48 25.5239 184.48 25.7521Z" fill="#5B40FF"/>
<path d="M197.116 15.3781C197.116 14.9216 197.093 14.3738 197.048 13.7347C197.002 13.0956 196.888 12.4793 196.705 11.8859C196.546 11.2696 196.283 10.756 195.918 10.3452C195.553 9.93434 195.05 9.72892 194.411 9.72892C193.795 9.72892 193.247 9.93434 192.768 10.3452C192.312 10.7332 191.923 11.2354 191.604 11.8516C191.284 12.4451 191.033 13.0728 190.851 13.7347C190.668 14.3738 190.531 14.9444 190.44 15.4466C190.828 15.4466 191.204 15.458 191.57 15.4808C191.958 15.4808 192.334 15.4808 192.7 15.4808C194.183 15.4808 195.655 15.4466 197.116 15.3781ZM202.046 22.9446C202.046 23.0131 202.024 23.1158 201.978 23.2528C201.955 23.3669 201.921 23.4582 201.875 23.5267C201.715 23.8919 201.419 24.3141 200.985 24.7935C200.551 25.25 200.163 25.6037 199.821 25.8548C198.292 27.0189 196.523 27.6009 194.514 27.6009C192.711 27.6009 191.147 27.2243 189.824 26.4711C188.5 25.695 187.484 24.6223 186.776 23.2528C186.069 21.8833 185.715 20.3083 185.715 18.528C185.715 16.7476 186.057 15.1385 186.742 13.7005C187.45 12.2397 188.454 11.087 189.755 10.2425C191.079 9.37513 192.665 8.94145 194.514 8.94145C196.637 8.94145 198.337 9.52349 199.616 10.6876C200.894 11.8516 201.533 13.5179 201.533 15.6863C201.533 16.2797 201.259 16.5764 200.711 16.5764C199.707 16.5764 198.703 16.565 197.698 16.5422C196.694 16.5194 195.69 16.508 194.685 16.508C193.955 16.508 193.225 16.508 192.494 16.508C191.764 16.508 191.033 16.5194 190.303 16.5422C190.234 17.2269 190.2 17.9231 190.2 18.6307C190.2 19.2698 190.28 20.023 190.44 20.8904C190.622 21.7577 190.885 22.6022 191.227 23.4239C191.592 24.2456 192.06 24.9304 192.631 25.4782C193.202 26.0032 193.898 26.2657 194.72 26.2657C195.747 26.2657 196.603 26.1173 197.287 25.8206C197.995 25.5239 198.623 25.1016 199.17 24.5538C199.718 24.006 200.277 23.3555 200.848 22.6022C200.917 22.5109 200.985 22.4425 201.053 22.3968C201.145 22.3283 201.247 22.2941 201.362 22.2941C201.521 22.2941 201.67 22.3626 201.807 22.4995C201.966 22.6137 202.046 22.762 202.046 22.9446Z" fill="#5B40FF"/>
</svg>
